<svg width="710" height="237" viewBox="0 0 710 237" fill="none" xmlns="http://www.w3.org/2000/svg">
<path d="M127 114.648H23C21.3431 114.648 20 115.992 20 117.648V127.648C20 129.305 21.3431 130.648 23 130.648H127C128.657 130.648 130 129.305 130 127.648V117.648C130 115.992 128.657 114.648 127 114.648Z" fill="#404040"/>
<path d="M267 114.648H163C161.343 114.648 160 115.992 160 117.648V127.648C160 129.305 161.343 130.648 163 130.648H267C268.657 130.648 270 129.305 270 127.648V117.648C270 115.992 268.657 114.648 267 114.648Z" fill="#404040"/>
<path d="M407 114.648H303C301.343 114.648 300 115.992 300 117.648V127.648C300 129.305 301.343 130.648 303 130.648H407C408.657 130.648 410 129.305 410 127.648V117.648C410 115.992 408.657 114.648 407 114.648Z" fill="#404040"/>
<path d="M547 114.648H443C441.343 114.648 440 115.992 440 117.648V127.648C440 129.305 441.343 130.648 443 130.648H547C548.657 130.648 550 129.305 550 127.648V117.648C550 115.992 548.657 114.648 547 114.648Z" fill="#404040"/>
<path d="M687 114.648H583C581.343 114.648 580 115.992 580 117.648V127.648C580 129.305 581.343 130.648 583 130.648H687C688.657 130.648 690 129.305 690 127.648V117.648C690 115.992 688.657 114.648 687 114.648Z" fill="#404040"/>
<path d="M150.354 123.002C150.549 122.807 150.549 122.49 150.354 122.295L147.172 119.113C146.976 118.918 146.66 118.918 146.464 119.113C146.269 119.308 146.269 119.625 146.464 119.82L149.293 122.648L146.464 125.477C146.269 125.672 146.269 125.989 146.464 126.184C146.66 126.379 146.976 126.379 147.172 126.184L150.354 123.002ZM140 123.148H150V122.148H140V123.148Z" fill="#F1BB52"/>
<path d="M290.354 123.002C290.549 122.807 290.549 122.49 290.354 122.295L287.172 119.113C286.976 118.918 286.66 118.918 286.464 119.113C286.269 119.308 286.269 119.625 286.464 119.82L289.293 122.648L286.464 125.477C286.269 125.672 286.269 125.989 286.464 126.184C286.66 126.379 286.976 126.379 287.172 126.184L290.354 123.002ZM280 123.148H290V122.148H280V123.148Z" fill="#F1BB52"/>
<path d="M430.354 123.002C430.549 122.807 430.549 122.49 430.354 122.295L427.172 119.113C426.976 118.918 426.66 118.918 426.464 119.113C426.269 119.308 426.269 119.625 426.464 119.82L429.293 122.648L426.464 125.477C426.269 125.672 426.269 125.989 426.464 126.184C426.66 126.379 426.976 126.379 427.172 126.184L430.354 123.002ZM420 123.148H430V122.148H420V123.148Z" fill="#F1BB52"/>
<path d="M570.354 123.002C570.549 122.807 570.549 122.49 570.354 122.295L567.172 119.113C566.976 118.918 566.66 118.918 566.464 119.113C566.269 119.308 566.269 119.625 566.464 119.82L569.293 122.648L566.464 125.477C566.269 125.672 566.269 125.989 566.464 126.184C566.66 126.379 566.976 126.379 567.172 126.184L570.354 123.002ZM560 123.148H570V122.148H560V123.148Z" fill="#F1BB52"/>
<path d="M215.774 83.0944C216.02 83.2193 216.321 83.1209 216.446 82.8746L218.481 78.861C218.606 78.6147 218.507 78.3138 218.261 78.189C218.015 78.0641 217.714 78.1625 217.589 78.4088L215.78 81.9764L212.213 80.1675C211.966 80.0426 211.665 80.141 211.54 80.3873C211.416 80.6336 211.514 80.9345 211.76 81.0594L215.774 83.0944ZM75.394 82.9562C76.4818 81.5637 77.6036 80.2074 78.7571 78.8877L78.0041 78.2296C76.8387 79.5631 75.7052 80.9335 74.606 82.3406L75.394 82.9562ZM86.121 71.3322C88.7237 68.9345 91.4392 66.6912 94.2474 64.6038L93.6508 63.8012C90.8151 65.9091 88.0725 68.1748 85.4434 70.5967L86.121 71.3322ZM103.028 58.7526C106.069 56.943 109.185 55.298 112.356 53.8195L111.933 52.9132C108.733 54.4057 105.587 56.0663 102.516 57.8933L103.028 58.7526ZM122.129 49.8427C125.478 48.6715 128.86 47.678 132.253 46.8643L132.019 45.8919C128.594 46.7135 125.179 47.7165 121.799 48.8988L122.129 49.8427ZM142.628 44.9387C146.157 44.4744 149.672 44.207 153.145 44.1383L153.125 43.1385C149.614 43.2079 146.062 43.4783 142.497 43.9472L142.628 44.9387ZM163.677 44.5568C167.225 44.9171 170.696 45.501 174.06 46.3107L174.294 45.3384C170.884 44.5177 167.369 43.9265 163.778 43.5619L163.677 44.5568ZM184.08 49.5335C187.362 50.881 190.488 52.4822 193.424 54.3395L193.959 53.4945C190.971 51.6044 187.792 49.9769 184.459 48.6084L184.08 49.5335ZM201.714 60.769C204.235 63.1555 206.529 65.803 208.558 68.7148L209.378 68.1431C207.309 65.1744 204.971 62.4752 202.402 60.0428L201.714 60.769ZM213.662 77.8869C214.348 79.4684 214.97 81.1073 215.525 82.8039L216.475 82.493C215.911 80.7673 215.277 79.0994 214.579 77.489L213.662 77.8869ZM215.548 83.5404C216.04 83.7901 216.642 83.5933 216.892 83.1007L220.962 75.0736C221.212 74.581 221.015 73.9792 220.522 73.7295C220.03 73.4797 219.428 73.6765 219.178 74.1691L215.56 81.3043L208.425 77.6865C207.933 77.4367 207.331 77.6336 207.081 78.1262C206.831 78.6187 207.028 79.2205 207.521 79.4703L215.548 83.5404ZM75.788 83.264C76.8702 81.8788 77.9861 80.5296 79.1335 79.2167L77.6276 77.9006C76.4562 79.2409 75.3169 80.6184 74.2119 82.0328L75.788 83.264ZM86.4597 71.6999C89.0493 69.3144 91.7513 67.0822 94.5456 65.0051L93.3525 63.4C90.503 65.5181 87.7469 67.7949 85.1047 70.2289L86.4597 71.6999ZM103.284 59.1823C106.31 57.3813 109.412 55.7442 112.567 54.2727L111.722 52.4601C108.506 53.9595 105.345 55.6279 102.261 57.4636L103.284 59.1823ZM122.294 50.3147C125.627 49.149 128.993 48.1603 132.369 47.3505L131.903 45.4056C128.461 46.2312 125.03 47.239 121.634 48.4269L122.294 50.3147ZM142.693 45.4344C146.204 44.9725 149.7 44.7065 153.155 44.6383L153.115 42.6386C149.585 42.7084 146.015 42.9802 142.432 43.4515L142.693 45.4344ZM163.626 45.0543C167.153 45.4123 170.602 45.9926 173.943 46.7968L174.411 44.8523C170.979 44.0261 167.44 43.4313 163.828 43.0645L163.626 45.0543ZM183.89 49.996C187.146 51.3331 190.247 52.9211 193.157 54.7621L194.226 53.0719C191.213 51.1656 188.008 49.5248 184.649 48.1459L183.89 49.996ZM201.371 61.1321C203.867 63.4956 206.138 66.1174 208.147 69.0007L209.788 67.8573C207.7 64.86 205.339 62.135 202.745 59.6797L201.371 61.1321ZM213.203 78.0858C213.883 79.6529 214.499 81.2773 215.05 82.9594L216.95 82.3376C216.381 80.5973 215.742 78.9148 215.038 77.29L213.203 78.0858Z" fill="#888888"/>
<path d="M491.778 83.0963C492.025 83.2191 492.325 83.1181 492.448 82.8707L494.449 78.84C494.571 78.5927 494.471 78.2926 494.223 78.1699C493.976 78.0471 493.676 78.1481 493.553 78.3954L491.774 81.9782L488.192 80.1997C487.944 80.0769 487.644 80.1779 487.521 80.4252C487.399 80.6726 487.5 80.9726 487.747 81.0954L491.778 83.0963ZM75.1738 83.1172C76.6808 82.5585 78.1998 82.0058 79.7303 81.4591L79.3939 80.5174C77.8597 81.0654 76.337 81.6195 74.8262 82.1796L75.1738 83.1172ZM89.0485 78.2506C92.1057 77.2358 95.2035 76.2435 98.3388 75.2737L98.0433 74.3184C94.9016 75.2901 91.7974 76.2845 88.7335 77.3015L89.0485 78.2506ZM107.742 72.4642C110.866 71.5627 114.023 70.6825 117.211 69.8236L116.95 68.858C113.757 69.7185 110.595 70.6003 107.465 71.5034L107.742 72.4642ZM126.674 67.3577C129.832 66.5622 133.016 65.7868 136.224 65.0316L135.995 64.0582C132.782 64.8146 129.593 65.5912 126.43 66.388L126.674 67.3577ZM145.778 62.8565C148.956 62.1573 152.154 61.4772 155.371 60.8162L155.169 59.8367C151.949 60.4986 148.746 61.1796 145.564 61.8798L145.778 62.8565ZM165.01 58.9024C168.205 58.29 171.415 57.696 174.639 57.1205L174.463 56.136C171.235 56.7123 168.021 57.3071 164.822 57.9203L165.01 58.9024ZM184.319 55.4535C187.535 54.9198 190.763 54.404 193.999 53.9063L193.847 52.9179C190.607 53.4162 187.375 53.9326 184.155 54.467L184.319 55.4535ZM203.706 52.4706C206.941 52.0111 210.183 51.5694 213.428 51.1454L213.299 50.1539C210.049 50.5783 206.804 51.0205 203.566 51.4805L203.706 52.4706ZM223.164 49.9284C226.411 49.5405 229.66 49.1704 232.91 48.8178L232.802 47.8236C229.549 48.1766 226.296 48.5472 223.045 48.9355L223.164 49.9284ZM242.673 47.8115C245.932 47.4933 249.189 47.1927 252.442 46.9099L252.355 45.9136C249.098 46.1968 245.838 46.4977 242.576 46.8163L242.673 47.8115ZM262.22 46.1118C265.491 45.8622 268.756 45.6307 272.013 45.417L271.947 44.4192C268.687 44.633 265.418 44.8649 262.144 45.1147L262.22 46.1118ZM281.789 44.828C285.074 44.6478 288.348 44.4859 291.609 44.3424L291.565 43.3434C288.3 43.487 285.023 43.6491 281.734 43.8295L281.789 44.828ZM301.399 43.9655C304.687 43.8571 307.96 43.7677 311.215 43.6972L311.193 42.6974C307.934 42.768 304.658 42.8576 301.366 42.9661L301.399 43.9655ZM321.033 43.5413C324.313 43.5084 327.571 43.4952 330.807 43.5016L330.809 42.5016C327.569 42.4952 324.307 42.5085 321.023 42.5414L321.033 43.5413ZM340.657 43.5827C343.952 43.6307 347.219 43.6998 350.455 43.7897L350.483 42.7901C347.242 42.7 343.971 42.6309 340.672 42.5828L340.657 43.5827ZM360.238 44.1293C363.554 44.2678 366.834 44.4292 370.073 44.6133L370.13 43.6149C366.885 43.4305 363.601 43.2689 360.28 43.1302L360.238 44.1293ZM379.846 45.2468C383.141 45.4875 386.389 45.7529 389.586 46.0431L389.677 45.0472C386.473 44.7565 383.219 44.4905 379.919 44.2495L379.846 45.2468ZM399.393 47.0284C402.705 47.3945 405.953 47.7889 409.135 48.2116L409.267 47.2203C406.077 46.7966 402.821 46.4013 399.503 46.0344L399.393 47.0284ZM418.807 49.6164C422.096 50.1371 425.301 50.6908 428.417 51.2774L428.602 50.2947C425.476 49.7062 422.261 49.1508 418.963 48.6287L418.807 49.6164ZM438.056 53.2619C441.358 54.0041 444.537 54.788 447.587 55.6137L447.848 54.6484C444.783 53.8187 441.59 53.0313 438.276 52.2862L438.056 53.2619ZM456.968 58.4226C460.214 59.4985 463.268 60.6313 466.116 61.8208L466.502 60.898C463.627 59.6977 460.549 58.5562 457.282 57.4734L456.968 58.4226ZM474.864 66.0107C477.971 67.7306 480.698 69.5442 483.019 71.4494L483.653 70.6764C481.277 68.7258 478.497 66.8793 475.349 65.1359L474.864 66.0107ZM489.455 78.5029C490.338 79.9 491.03 81.335 491.526 82.8079L492.474 82.4889C491.951 80.9348 491.223 79.428 490.301 77.9687L489.455 78.5029ZM491.555 83.5441C492.05 83.7897 492.65 83.5877 492.896 83.0931L496.897 75.0316C497.143 74.537 496.941 73.9369 496.446 73.6913C495.952 73.4457 495.352 73.6477 495.106 74.1424L491.549 81.3081L484.383 77.751C483.889 77.5054 483.288 77.7074 483.043 78.2021C482.797 78.6968 482.999 79.2969 483.494 79.5424L491.555 83.5441ZM75.3476 83.586C76.8527 83.028 78.3698 82.476 79.8985 81.93L79.2257 80.0465C77.6897 80.5952 76.1651 81.1499 74.6524 81.7107L75.3476 83.586ZM89.206 78.7251C92.2599 77.7114 95.3544 76.7202 98.4865 75.7514L97.8955 73.8407C94.7507 74.8134 91.6432 75.8088 88.5759 76.827L89.206 78.7251ZM107.881 72.9446C111.002 72.044 114.156 71.1646 117.341 70.3064L116.82 68.3753C113.625 69.2364 110.459 70.119 107.326 71.023L107.881 72.9446ZM126.796 67.8425C129.951 67.0477 133.133 66.273 136.339 65.5183L135.88 63.5715C132.665 64.3285 129.473 65.1057 126.307 65.9031L126.796 67.8425ZM145.886 63.3448C149.061 62.6461 152.257 61.9665 155.471 61.306L155.069 59.3469C151.846 60.0093 148.641 60.6908 145.456 61.3915L145.886 63.3448ZM165.104 59.3935C168.297 58.7815 171.505 58.1879 174.727 57.6127L174.375 55.6438C171.145 56.2205 167.929 56.8156 164.728 57.4293L165.104 59.3935ZM184.4 55.9468C187.615 55.4133 190.841 54.8979 194.075 54.4005L193.771 52.4237C190.529 52.9224 187.296 53.439 184.073 53.9738L184.4 55.9468ZM203.777 52.9656C207.01 52.5064 210.249 52.0649 213.493 51.6412L213.234 49.6581C209.983 50.0827 206.736 50.5252 203.496 50.9855L203.777 52.9656ZM223.223 50.4249C226.468 50.0372 229.716 49.6672 232.964 49.3149L232.748 47.3265C229.493 47.6797 226.238 48.0505 222.986 48.439L223.223 50.4249ZM242.722 48.3092C245.979 47.9911 249.234 47.6907 252.485 47.408L252.312 45.4155C249.053 45.6988 245.791 45.9999 242.527 46.3186L242.722 48.3092ZM262.258 46.6103C265.527 46.3609 268.79 46.1295 272.046 45.9159L271.915 43.9202C268.652 44.1342 265.382 44.3662 262.106 44.6161L262.258 46.6103ZM281.816 45.3273C285.099 45.1471 288.372 44.9853 291.631 44.8419L291.544 42.8439C288.277 42.9876 284.997 43.1497 281.707 43.3303L281.816 45.3273ZM301.415 44.4653C304.702 44.3569 307.973 44.2675 311.225 44.1971L311.182 42.1975C307.922 42.2682 304.643 42.3578 301.349 42.4664L301.415 44.4653ZM321.038 44.0413C324.316 44.0084 327.572 43.9952 330.806 44.0016L330.81 42.0016C327.568 41.9952 324.303 42.0085 321.018 42.0414L321.038 44.0413ZM340.65 44.0826C343.943 44.1307 347.207 44.1996 350.441 44.2895L350.497 42.2903C347.254 42.2002 343.981 42.131 340.679 42.0828L340.65 44.0826ZM360.218 44.6289C363.531 44.7673 366.808 44.9285 370.045 45.1125L370.159 43.1157C366.911 42.9312 363.624 42.7694 360.301 42.6306L360.218 44.6289ZM379.809 45.7455C383.102 45.9859 386.347 46.2511 389.541 46.541L389.722 44.5492C386.515 44.2582 383.259 43.9921 379.955 43.7508L379.809 45.7455ZM399.339 47.5253C402.646 47.8911 405.891 48.285 409.069 48.7072L409.333 46.7246C406.139 46.3004 402.88 45.9047 399.558 45.5375L399.339 47.5253ZM418.728 50.1102C422.013 50.6302 425.213 51.1831 428.324 51.7688L428.694 49.8033C425.563 49.2139 422.344 48.6577 419.041 48.1348L418.728 50.1102ZM437.947 53.7497C441.242 54.4904 444.414 55.2727 447.456 56.0963L447.979 54.1658C444.907 53.3341 441.706 52.5449 438.386 51.7984L437.947 53.7497ZM456.81 58.8972C460.046 59.9696 463.088 61.0981 465.924 62.2822L466.694 60.4366C463.807 59.2309 460.717 58.0851 457.439 56.9988L456.81 58.8972ZM474.622 66.4481C477.707 68.1563 480.408 69.9534 482.702 71.8359L483.971 70.2899C481.566 68.3166 478.761 66.4536 475.591 64.6984L474.622 66.4481ZM489.033 78.77C489.896 80.1361 490.57 81.5351 491.052 82.9674L492.948 82.3295C492.411 80.7347 491.665 79.192 490.723 77.7016L489.033 78.77Z" fill="#888888"/>
<path d="M221.354 146.295C221.158 146.099 220.842 146.099 220.646 146.295L217.464 149.477C217.269 149.672 217.269 149.989 217.464 150.184C217.66 150.379 217.976 150.379 218.172 150.184L221 147.355L223.828 150.184C224.024 150.379 224.34 150.379 224.536 150.184C224.731 149.989 224.731 149.672 224.536 149.477L221.354 146.295ZM638.869 146.166C637.196 146.621 635.53 147.073 633.869 147.521L634.129 148.487C635.791 148.038 637.458 147.586 639.131 147.131L638.869 146.166ZM623.974 150.173C620.7 151.044 617.448 151.902 614.22 152.746L614.473 153.714C617.703 152.869 620.955 152.01 624.231 151.139L623.974 150.173ZM604.341 155.31C601.015 156.166 597.714 157.008 594.438 157.836L594.683 158.806C597.96 157.977 601.262 157.135 604.59 156.279L604.341 155.31ZM584.685 160.279C581.333 161.111 578.007 161.928 574.708 162.73L574.944 163.702C578.245 162.899 581.572 162.082 584.926 161.249L584.685 160.279ZM564.82 165.11C561.52 165.896 558.249 166.666 555.004 167.422L555.231 168.396C558.477 167.64 561.75 166.869 565.051 166.083L564.82 165.11ZM544.983 169.729C541.672 170.481 538.391 171.218 535.138 171.939L535.355 172.916C538.609 172.194 541.892 171.457 545.205 170.704L544.983 169.729ZM525.15 174.125C521.799 174.848 518.48 175.553 515.193 176.242L515.398 177.221C518.687 176.532 522.008 175.826 525.361 175.102L525.15 174.125ZM505.295 178.285C501.907 178.973 498.555 179.642 495.237 180.293L495.429 181.274C498.749 180.623 502.104 179.953 505.494 179.265L505.295 178.285ZM485.386 182.191C481.969 182.838 478.59 183.464 475.248 184.07L475.427 185.054C478.771 184.447 482.152 183.821 485.572 183.174L485.386 182.191ZM465.329 185.832C461.915 186.425 458.543 186.996 455.212 187.546L455.374 188.533C458.709 187.982 462.084 187.411 465.5 186.817L465.329 185.832ZM445.244 189.149C441.823 189.684 438.447 190.196 435.116 190.685L435.261 191.674C438.596 191.185 441.974 190.672 445.398 190.137L445.244 189.149ZM425.126 192.102C421.688 192.572 418.3 193.017 414.96 193.438L415.085 194.43C418.428 194.009 421.82 193.563 425.262 193.092L425.126 192.102ZM404.984 194.637C401.518 195.034 398.109 195.403 394.754 195.744L394.856 196.739C398.214 196.397 401.628 196.028 405.097 195.631L404.984 194.637ZM384.699 196.702C381.247 197.007 377.857 197.282 374.529 197.527L374.602 198.524C377.936 198.279 381.33 198.004 384.787 197.698L384.699 196.702ZM364.361 198.195C360.94 198.392 357.589 198.555 354.305 198.686L354.345 199.685C357.634 199.554 360.992 199.39 364.418 199.193L364.361 198.195ZM344.067 198.995C340.589 199.065 337.194 199.096 333.881 199.089L333.879 200.089C337.2 200.096 340.602 200.065 344.087 199.995L344.067 198.995ZM323.759 198.944C320.301 198.851 316.941 198.713 313.677 198.532L313.622 199.531C316.895 199.712 320.265 199.85 323.732 199.944L323.759 198.944ZM303.496 197.802C300 197.491 296.628 197.126 293.377 196.709L293.249 197.701C296.514 198.12 299.899 198.486 303.407 198.798L303.496 197.802ZM283.337 195.188C279.869 194.577 276.561 193.899 273.41 193.156L273.181 194.13C276.352 194.877 279.678 195.559 283.163 196.173L283.337 195.188ZM263.666 190.507C260.257 189.443 257.072 188.291 254.106 187.055L253.721 187.979C256.719 189.227 259.932 190.39 263.369 191.462L263.666 190.507ZM245.004 182.63C241.9 180.867 239.125 178.985 236.667 176.996L236.038 177.774C238.542 179.8 241.363 181.712 244.51 183.5L245.004 182.63ZM229.577 169.917C227.409 167.193 225.697 164.324 224.418 161.33L223.498 161.723C224.814 164.802 226.573 167.748 228.794 170.54L229.577 169.917ZM221.811 151.664C221.603 150.02 221.5 148.347 221.5 146.648H220.5C220.5 148.388 220.605 150.102 220.819 151.79L221.811 151.664ZM221.707 145.941C221.317 145.551 220.683 145.551 220.293 145.941L213.929 152.305C213.538 152.696 213.538 153.329 213.929 153.719C214.319 154.11 214.953 154.11 215.343 153.719L221 148.063L226.657 153.719C227.047 154.11 227.681 154.11 228.071 153.719C228.462 153.329 228.462 152.696 228.071 152.305L221.707 145.941ZM638.737 145.683C637.065 146.138 635.399 146.59 633.738 147.038L634.26 148.969C635.922 148.521 637.589 148.068 639.263 147.613L638.737 145.683ZM623.846 149.69C620.572 150.56 617.321 151.418 614.094 152.263L614.6 154.198C617.83 153.352 621.083 152.494 624.36 151.623L623.846 149.69ZM604.216 154.826C600.891 155.682 597.59 156.524 594.315 157.352L594.805 159.291C598.083 158.462 601.386 157.62 604.715 156.763L604.216 154.826ZM584.565 159.793C581.213 160.625 577.888 161.442 574.59 162.244L575.062 164.187C578.364 163.385 581.692 162.567 585.046 161.735L584.565 159.793ZM564.704 164.623C561.405 165.409 558.134 166.179 554.891 166.935L555.345 168.883C558.591 168.126 561.865 167.355 565.167 166.569L564.704 164.623ZM544.872 169.241C541.562 169.994 538.281 170.73 535.03 171.451L535.463 173.404C538.718 172.682 542.002 171.945 545.316 171.191L544.872 169.241ZM525.044 173.636C521.695 174.359 518.377 175.064 515.091 175.753L515.501 177.71C518.791 177.021 522.112 176.315 525.466 175.591L525.044 173.636ZM505.196 177.795C501.809 178.482 498.457 179.152 495.14 179.802L495.525 181.765C498.847 181.113 502.203 180.443 505.594 179.755L505.196 177.795ZM485.293 181.7C481.877 182.346 478.499 182.972 475.159 183.579L475.516 185.546C478.861 184.939 482.244 184.312 485.665 183.665L485.293 181.7ZM465.243 185.34C461.831 185.932 458.46 186.503 455.13 187.053L455.456 189.026C458.792 188.476 462.168 187.904 465.585 187.31L465.243 185.34ZM445.166 188.655C441.747 189.19 438.373 189.701 435.044 190.19L435.334 192.169C438.67 191.679 442.05 191.167 445.475 190.631L445.166 188.655ZM425.059 191.606C421.622 192.076 418.235 192.521 414.898 192.941L415.147 194.926C418.492 194.505 421.886 194.059 425.33 193.588L425.059 191.606ZM404.927 194.14C401.464 194.537 398.056 194.906 394.704 195.247L394.906 197.237C398.267 196.894 401.683 196.525 405.154 196.128L404.927 194.14ZM384.655 196.204C381.205 196.509 377.818 196.783 374.492 197.028L374.639 199.023C377.975 198.777 381.372 198.502 384.831 198.196L384.655 196.204ZM364.332 197.696C360.914 197.892 357.566 198.056 354.285 198.187L354.365 200.185C357.657 200.054 361.018 199.89 364.447 199.693L364.332 197.696ZM344.057 198.495C340.583 198.565 337.192 198.596 333.882 198.589L333.878 200.589C337.203 200.596 340.609 200.565 344.097 200.495L344.057 198.495ZM323.772 198.445C320.319 198.351 316.964 198.214 313.705 198.033L313.594 200.03C316.873 200.212 320.247 200.35 323.718 200.444L323.772 198.445ZM303.54 197.304C300.051 196.994 296.685 196.629 293.44 196.213L293.186 198.196C296.457 198.617 299.849 198.984 303.363 199.296L303.54 197.304ZM283.423 194.696C279.965 194.086 276.666 193.41 273.525 192.67L273.066 194.616C276.247 195.366 279.583 196.05 283.076 196.665L283.423 194.696ZM263.815 190.03C260.419 188.97 257.249 187.823 254.298 186.594L253.529 188.44C256.542 189.695 259.77 190.863 263.22 191.939L263.815 190.03ZM245.251 182.195C242.168 180.445 239.416 178.578 236.982 176.608L235.723 178.163C238.251 180.208 241.094 182.135 244.263 183.934L245.251 182.195ZM229.968 169.606C227.827 166.916 226.139 164.085 224.878 161.134L223.038 161.92C224.372 165.041 226.155 168.026 228.403 170.851L229.968 169.606ZM222.307 151.601C222.102 149.979 222 148.327 222 146.648H220C220 148.408 220.107 150.144 220.323 151.853L222.307 151.601Z" fill="#888888"/>
<path d="M332.329 146.272C332.121 146.09 331.805 146.112 331.623 146.32L328.664 149.71C328.482 149.918 328.504 150.234 328.712 150.415C328.92 150.597 329.236 150.575 329.417 150.367L332.048 147.354L335.061 149.985C335.269 150.166 335.585 150.145 335.767 149.937C335.948 149.729 335.927 149.413 335.719 149.231L332.329 146.272ZM498.611 146.334C497.619 147.559 496.585 148.797 495.511 150.043L496.269 150.696C497.349 149.442 498.39 148.197 499.389 146.963L498.611 146.334ZM488.956 157.257C486.769 159.545 484.47 161.845 482.072 164.141L482.764 164.863C485.172 162.558 487.482 160.247 489.679 157.948L488.956 157.257ZM474.883 170.742C472.474 172.866 469.992 174.97 467.446 177.041L468.077 177.817C470.633 175.737 473.126 173.624 475.544 171.493L474.883 170.742ZM459.769 183.041C457.175 184.986 454.533 186.886 451.853 188.729L452.419 189.553C455.111 187.702 457.764 185.794 460.369 183.841L459.769 183.041ZM443.707 194.073C440.935 195.804 438.136 197.463 435.321 199.036L435.809 199.909C438.639 198.327 441.452 196.66 444.236 194.921L443.707 194.073ZM426.688 203.558C423.732 205.002 420.771 206.338 417.817 207.551L418.197 208.476C421.172 207.254 424.153 205.909 427.127 204.457L426.688 203.558ZM408.695 210.902C405.535 211.921 402.4 212.778 399.306 213.454L399.519 214.431C402.648 213.747 405.814 212.881 409.002 211.854L408.695 210.902ZM389.752 214.964C386.442 215.272 383.203 215.337 380.056 215.132L379.991 216.129C383.196 216.338 386.488 216.272 389.845 215.959L389.752 214.964ZM370.543 213.587C367.427 212.746 364.437 211.571 361.598 210.034L361.122 210.913C364.032 212.489 367.095 213.692 370.282 214.553L370.543 213.587ZM353.765 204.489C351.467 202.418 349.311 200.02 347.317 197.268L346.507 197.855C348.54 200.66 350.743 203.112 353.096 205.232L353.765 204.489ZM342.377 189.036C341.02 186.303 339.779 183.328 338.664 180.098L337.719 180.424C338.847 183.691 340.104 186.706 341.482 189.481L342.377 189.036ZM335.974 170.767C335.261 167.767 334.637 164.592 334.108 161.236L333.12 161.391C333.653 164.771 334.281 167.972 335.001 170.998L335.974 170.767ZM332.903 151.6C332.749 149.975 332.614 148.313 332.499 146.615L331.501 146.682C331.617 148.389 331.753 150.06 331.908 151.694L332.903 151.6ZM332.658 145.895C332.242 145.532 331.61 145.575 331.247 145.991L325.328 152.771C324.965 153.187 325.007 153.819 325.424 154.182C325.84 154.545 326.471 154.502 326.834 154.086L332.096 148.06L338.122 153.321C338.538 153.684 339.17 153.641 339.533 153.225C339.896 152.809 339.854 152.177 339.438 151.814L332.658 145.895ZM498.223 146.019C497.234 147.24 496.203 148.474 495.132 149.717L496.648 151.022C497.731 149.764 498.775 148.515 499.777 147.278L498.223 146.019ZM488.595 156.911C486.413 159.194 484.119 161.489 481.726 163.78L483.109 165.224C485.523 162.914 487.838 160.598 490.041 158.293L488.595 156.911ZM474.552 170.367C472.149 172.486 469.671 174.586 467.131 176.653L468.393 178.205C470.954 176.121 473.451 174.004 475.875 171.868L474.552 170.367ZM459.469 182.641C456.88 184.582 454.244 186.478 451.569 188.317L452.702 189.965C455.4 188.11 458.059 186.198 460.669 184.241L459.469 182.641ZM443.442 193.649C440.677 195.376 437.885 197.03 435.077 198.6L436.052 200.345C438.89 198.76 441.71 197.089 444.501 195.345L443.442 193.649ZM426.469 203.109C423.522 204.548 420.57 205.88 417.627 207.088L418.387 208.938C421.372 207.712 424.363 206.363 427.346 204.906L426.469 203.109ZM408.542 210.426C405.396 211.44 402.276 212.293 399.199 212.966L399.626 214.92C402.772 214.232 405.954 213.362 409.155 212.33L408.542 210.426ZM389.706 214.466C386.42 214.772 383.207 214.836 380.088 214.633L379.958 216.628C383.192 216.839 386.511 216.772 389.892 216.457L389.706 214.466ZM370.673 213.105C367.593 212.273 364.639 211.112 361.836 209.594L360.884 211.353C363.83 212.948 366.929 214.165 370.152 215.035L370.673 213.105ZM354.1 204.117C351.829 202.072 349.696 199.699 347.722 196.975L346.102 198.148C348.155 200.981 350.381 203.459 352.761 205.603L354.1 204.117ZM342.825 188.813C341.478 186.101 340.245 183.146 339.137 179.935L337.246 180.587C338.381 183.873 339.646 186.908 341.034 189.703L342.825 188.813ZM336.46 170.651C335.75 167.665 335.129 164.502 334.602 161.158L332.626 161.469C333.161 164.861 333.792 168.074 334.515 171.114L336.46 170.651ZM333.401 151.553C333.247 149.932 333.113 148.275 332.998 146.581L331.002 146.716C331.118 148.428 331.254 150.103 331.41 151.742L333.401 151.553Z" fill="#888888"/>
<path d="M20.77 106V99.02H25.52V100.37H22.29V101.8H25.06V103.14H22.29V104.65H25.52V106H20.77ZM32.0642 101.42H32.0342L31.5242 102.44L30.1642 104.91L28.8342 102.45L28.3042 101.35H28.2742V106H26.8442V99.02H28.4542L30.1642 102.29H30.1842L31.8742 99.02H33.4942V106H32.0642V101.42ZM35.0376 106V99.02H38.3376C38.6642 99.02 38.9576 99.0767 39.2176 99.19C39.4776 99.2967 39.6976 99.4467 39.8776 99.64C40.0642 99.8333 40.2076 100.07 40.3076 100.35C40.4076 100.623 40.4576 100.923 40.4576 101.25C40.4576 101.583 40.4076 101.887 40.3076 102.16C40.2076 102.433 40.0642 102.667 39.8776 102.86C39.6976 103.053 39.4776 103.207 39.2176 103.32C38.9576 103.427 38.6642 103.48 38.3376 103.48H36.5576V106H35.0376ZM36.5576 102.16H38.1576C38.3842 102.16 38.5609 102.103 38.6876 101.99C38.8209 101.87 38.8876 101.697 38.8876 101.47V101.03C38.8876 100.803 38.8209 100.633 38.6876 100.52C38.5609 100.4 38.3842 100.34 38.1576 100.34H36.5576V102.16ZM45.7801 103.14H43.1201V106H41.6001V99.02H43.1201V101.8H45.7801V99.02H47.3001V106H45.7801V103.14ZM53.1364 106L52.6364 104.34H50.3064L49.8064 106H48.2664L50.5664 99.02H52.4464L54.7164 106H53.1364ZM51.4864 100.4H51.4364L50.6664 103.05H52.2664L51.4864 100.4ZM57.9378 100.37V106H56.4178V100.37H54.5278V99.02H59.8278V100.37H57.9378ZM65.0477 103.14H62.3877V106H60.8677V99.02H62.3877V101.8H65.0477V99.02H66.5677V106H65.0477V103.14ZM67.834 106V104.79H68.734V100.23H67.834V99.02H71.154V100.23H70.254V104.79H71.154V106H67.834ZM74.6804 106.12C74.0671 106.12 73.5471 106.017 73.1204 105.81C72.6937 105.597 72.3304 105.323 72.0304 104.99L73.0304 103.98C73.5037 104.513 74.0871 104.78 74.7804 104.78C75.1537 104.78 75.4304 104.703 75.6104 104.55C75.7904 104.397 75.8804 104.193 75.8804 103.94C75.8804 103.747 75.8271 103.587 75.7204 103.46C75.6137 103.327 75.3971 103.237 75.0704 103.19L74.3804 103.1C73.6404 103.007 73.0971 102.783 72.7504 102.43C72.4104 102.077 72.2404 101.607 72.2404 101.02C72.2404 100.707 72.3004 100.42 72.4204 100.16C72.5404 99.9 72.7104 99.6767 72.9304 99.49C73.1571 99.3033 73.4304 99.16 73.7504 99.06C74.0771 98.9533 74.4471 98.9 74.8604 98.9C75.3871 98.9 75.8504 98.9833 76.2504 99.15C76.6504 99.3167 76.9937 99.56 77.2804 99.88L76.2704 100.9C76.1037 100.707 75.9004 100.55 75.6604 100.43C75.4271 100.303 75.1304 100.24 74.7704 100.24C74.4304 100.24 74.1771 100.3 74.0104 100.42C73.8437 100.54 73.7604 100.707 73.7604 100.92C73.7604 101.16 73.8237 101.333 73.9504 101.44C74.0837 101.547 74.2971 101.623 74.5904 101.67L75.2804 101.78C76.0004 101.893 76.5337 102.117 76.8804 102.45C77.2271 102.777 77.4004 103.243 77.4004 103.85C77.4004 104.183 77.3404 104.49 77.2204 104.77C77.1004 105.05 76.9237 105.29 76.6904 105.49C76.4637 105.69 76.1804 105.847 75.8404 105.96C75.5004 106.067 75.1137 106.12 74.6804 106.12ZM78.6606 106V99.02H83.4106V100.37H80.1806V101.8H82.9506V103.14H80.1806V104.65H83.4106V106H78.6606Z" fill="#404040"/>
<path d="M160.77 99.02H163.4C163.86 99.02 164.28 99.0933 164.66 99.24C165.04 99.3867 165.363 99.6067 165.63 99.9C165.897 100.187 166.103 100.55 166.25 100.99C166.397 101.423 166.47 101.93 166.47 102.51C166.47 103.09 166.397 103.6 166.25 104.04C166.103 104.473 165.897 104.837 165.63 105.13C165.363 105.417 165.04 105.633 164.66 105.78C164.28 105.927 163.86 106 163.4 106H160.77V99.02ZM163.4 104.65C163.853 104.65 164.21 104.523 164.47 104.27C164.73 104.017 164.86 103.61 164.86 103.05V101.97C164.86 101.41 164.73 101.003 164.47 100.75C164.21 100.497 163.853 100.37 163.4 100.37H162.29V104.65H163.4ZM167.743 106V99.02H172.493V100.37H169.263V101.8H172.033V103.14H169.263V104.65H172.493V106H167.743ZM173.817 106V99.02H178.447V100.37H175.337V101.8H177.987V103.14H175.337V106H173.817ZM179.396 106V104.79H180.296V100.23H179.396V99.02H182.716V100.23H181.816V104.79H182.716V106H179.396ZM186.113 102.7L185.443 101.3H185.413V106H183.983V99.02H185.643L187.553 102.32L188.223 103.72H188.253V99.02H189.683V106H188.023L186.113 102.7ZM191.219 106V99.02H195.969V100.37H192.739V101.8H195.509V103.14H192.739V104.65H195.969V106H191.219Z" fill="#404040"/>
<path d="M300.5 106V104.79H301.4V100.23H300.5V99.02H303.82V100.23H302.92V104.79H303.82V106H300.5ZM305.086 99.02H307.716C308.176 99.02 308.596 99.0933 308.976 99.24C309.356 99.3867 309.68 99.6067 309.946 99.9C310.213 100.187 310.42 100.55 310.566 100.99C310.713 101.423 310.786 101.93 310.786 102.51C310.786 103.09 310.713 103.6 310.566 104.04C310.42 104.473 310.213 104.837 309.946 105.13C309.68 105.417 309.356 105.633 308.976 105.78C308.596 105.927 308.176 106 307.716 106H305.086V99.02ZM307.716 104.65C308.17 104.65 308.526 104.523 308.786 104.27C309.046 104.017 309.176 103.61 309.176 103.05V101.97C309.176 101.41 309.046 101.003 308.786 100.75C308.526 100.497 308.17 100.37 307.716 100.37H306.606V104.65H307.716ZM312.059 106V99.02H316.809V100.37H313.579V101.8H316.349V103.14H313.579V104.65H316.809V106H312.059ZM322.433 106L321.933 104.34H319.603L319.103 106H317.563L319.863 99.02H321.743L324.013 106H322.433ZM320.783 100.4H320.733L319.963 103.05H321.563L320.783 100.4ZM327.235 100.37V106H325.715V100.37H323.825V99.02H329.125V100.37H327.235ZM330.165 106V99.02H334.915V100.37H331.685V101.8H334.455V103.14H331.685V104.65H334.915V106H330.165Z" fill="#404040"/>
<path d="M440.77 106V99.02H444.07C444.397 99.02 444.69 99.0767 444.95 99.19C445.21 99.2967 445.43 99.4467 445.61 99.64C445.797 99.8333 445.94 100.07 446.04 100.35C446.14 100.623 446.19 100.923 446.19 101.25C446.19 101.583 446.14 101.887 446.04 102.16C445.94 102.433 445.797 102.667 445.61 102.86C445.43 103.053 445.21 103.207 444.95 103.32C444.69 103.427 444.397 103.48 444.07 103.48H442.29V106H440.77ZM442.29 102.16H443.89C444.117 102.16 444.293 102.103 444.42 101.99C444.553 101.87 444.62 101.697 444.62 101.47V101.03C444.62 100.803 444.553 100.633 444.42 100.52C444.293 100.4 444.117 100.34 443.89 100.34H442.29V102.16ZM448.853 106H447.333V99.02H450.643C450.963 99.02 451.253 99.0733 451.513 99.18C451.773 99.2867 451.993 99.44 452.173 99.64C452.359 99.8333 452.503 100.067 452.603 100.34C452.703 100.613 452.753 100.917 452.753 101.25C452.753 101.723 452.646 102.137 452.433 102.49C452.226 102.843 451.909 103.1 451.483 103.26L452.853 106H451.163L449.943 103.44H448.853V106ZM450.453 102.16C450.679 102.16 450.856 102.103 450.983 101.99C451.116 101.87 451.183 101.697 451.183 101.47V101.03C451.183 100.803 451.116 100.633 450.983 100.52C450.856 100.4 450.679 100.34 450.453 100.34H448.853V102.16H450.453ZM456.773 106.12C456.313 106.12 455.893 106.043 455.513 105.89C455.133 105.737 454.81 105.51 454.543 105.21C454.276 104.903 454.07 104.527 453.923 104.08C453.776 103.627 453.703 103.103 453.703 102.51C453.703 101.917 453.776 101.397 453.923 100.95C454.07 100.497 454.276 100.12 454.543 99.82C454.81 99.5133 455.133 99.2833 455.513 99.13C455.893 98.9767 456.313 98.9 456.773 98.9C457.233 98.9 457.653 98.9767 458.033 99.13C458.413 99.2833 458.736 99.5133 459.003 99.82C459.27 100.12 459.476 100.497 459.623 100.95C459.77 101.397 459.843 101.917 459.843 102.51C459.843 103.103 459.77 103.627 459.623 104.08C459.476 104.527 459.27 104.903 459.003 105.21C458.736 105.51 458.413 105.737 458.033 105.89C457.653 106.043 457.233 106.12 456.773 106.12ZM456.773 104.77C457.233 104.77 457.59 104.62 457.843 104.32C458.103 104.02 458.233 103.59 458.233 103.03V101.99C458.233 101.43 458.103 101 457.843 100.7C457.59 100.4 457.233 100.25 456.773 100.25C456.313 100.25 455.953 100.4 455.693 100.7C455.44 101 455.313 101.43 455.313 101.99V103.03C455.313 103.59 455.44 104.02 455.693 104.32C455.953 104.62 456.313 104.77 456.773 104.77ZM463.768 100.37V106H462.248V100.37H460.358V99.02H465.658V100.37H463.768ZM469.244 106.12C468.784 106.12 468.364 106.043 467.984 105.89C467.604 105.737 467.28 105.51 467.014 105.21C466.747 104.903 466.54 104.527 466.394 104.08C466.247 103.627 466.174 103.103 466.174 102.51C466.174 101.917 466.247 101.397 466.394 100.95C466.54 100.497 466.747 100.12 467.014 99.82C467.28 99.5133 467.604 99.2833 467.984 99.13C468.364 98.9767 468.784 98.9 469.244 98.9C469.704 98.9 470.124 98.9767 470.504 99.13C470.884 99.2833 471.207 99.5133 471.474 99.82C471.74 100.12 471.947 100.497 472.094 100.95C472.24 101.397 472.314 101.917 472.314 102.51C472.314 103.103 472.24 103.627 472.094 104.08C471.947 104.527 471.74 104.903 471.474 105.21C471.207 105.51 470.884 105.737 470.504 105.89C470.124 106.043 469.704 106.12 469.244 106.12ZM469.244 104.77C469.704 104.77 470.06 104.62 470.314 104.32C470.574 104.02 470.704 103.59 470.704 103.03V101.99C470.704 101.43 470.574 101 470.314 100.7C470.06 100.4 469.704 100.25 469.244 100.25C468.784 100.25 468.424 100.4 468.164 100.7C467.91 101 467.784 101.43 467.784 101.99V103.03C467.784 103.59 467.91 104.02 468.164 104.32C468.424 104.62 468.784 104.77 469.244 104.77ZM476.239 100.37V106H474.719V100.37H472.829V99.02H478.129V100.37H476.239ZM480.908 106V103.27L478.518 99.02H480.218L481.718 101.8H481.738L483.178 99.02H484.828L482.438 103.26V106H480.908ZM485.692 106V99.02H488.992C489.319 99.02 489.612 99.0767 489.872 99.19C490.132 99.2967 490.352 99.4467 490.532 99.64C490.719 99.8333 490.862 100.07 490.962 100.35C491.062 100.623 491.112 100.923 491.112 101.25C491.112 101.583 491.062 101.887 490.962 102.16C490.862 102.433 490.719 102.667 490.532 102.86C490.352 103.053 490.132 103.207 489.872 103.32C489.612 103.427 489.319 103.48 488.992 103.48H487.212V106H485.692ZM487.212 102.16H488.812C489.039 102.16 489.215 102.103 489.342 101.99C489.475 101.87 489.542 101.697 489.542 101.47V101.03C489.542 100.803 489.475 100.633 489.342 100.52C489.215 100.4 489.039 100.34 488.812 100.34H487.212V102.16ZM492.254 106V99.02H497.004V100.37H493.774V101.8H496.544V103.14H493.774V104.65H497.004V106H492.254Z" fill="#404040"/>
<path d="M583.68 100.37V106H582.16V100.37H580.27V99.02H585.57V100.37H583.68ZM586.61 106V99.02H591.36V100.37H588.13V101.8H590.9V103.14H588.13V104.65H591.36V106H586.61ZM594.944 106.12C594.331 106.12 593.811 106.017 593.384 105.81C592.957 105.597 592.594 105.323 592.294 104.99L593.294 103.98C593.767 104.513 594.351 104.78 595.044 104.78C595.417 104.78 595.694 104.703 595.874 104.55C596.054 104.397 596.144 104.193 596.144 103.94C596.144 103.747 596.091 103.587 595.984 103.46C595.877 103.327 595.661 103.237 595.334 103.19L594.644 103.1C593.904 103.007 593.361 102.783 593.014 102.43C592.674 102.077 592.504 101.607 592.504 101.02C592.504 100.707 592.564 100.42 592.684 100.16C592.804 99.9 592.974 99.6767 593.194 99.49C593.421 99.3033 593.694 99.16 594.014 99.06C594.341 98.9533 594.711 98.9 595.124 98.9C595.651 98.9 596.114 98.9833 596.514 99.15C596.914 99.3167 597.257 99.56 597.544 99.88L596.534 100.9C596.367 100.707 596.164 100.55 595.924 100.43C595.691 100.303 595.394 100.24 595.034 100.24C594.694 100.24 594.441 100.3 594.274 100.42C594.107 100.54 594.024 100.707 594.024 100.92C594.024 101.16 594.087 101.333 594.214 101.44C594.347 101.547 594.561 101.623 594.854 101.67L595.544 101.78C596.264 101.893 596.797 102.117 597.144 102.45C597.491 102.777 597.664 103.243 597.664 103.85C597.664 104.183 597.604 104.49 597.484 104.77C597.364 105.05 597.187 105.29 596.954 105.49C596.727 105.69 596.444 105.847 596.104 105.96C595.764 106.067 595.377 106.12 594.944 106.12ZM601.6 100.37V106H600.08V100.37H598.19V99.02H603.49V100.37H601.6Z" fill="#404040"/>
</svg>
