<svg width="280" height="289" viewBox="0 0 280 289" fill="none" xmlns="http://www.w3.org/2000/svg">
<g clip-path="url(#clip0)">
<path d="M234.485 114.995C241.662 138.41 239.951 163.649 229.681 185.881" stroke="#404040" stroke-width="3"/>
<path d="M225.605 194.612L224.996 179.271L237.681 185.131L225.605 194.612Z" fill="#404040"/>
<path d="M46.5198 185.426C37.2332 162.685 36.6867 137.312 44.9856 114.192" stroke="#404040" stroke-width="3"/>
<path d="M48.2768 105.137L50.2339 120.364L37.0821 115.644L48.2768 105.137Z" fill="#404040"/>
<path d="M175.092 239.781C162.83 244.294 149.798 246.348 136.742 245.825C123.685 245.301 110.86 242.212 98.9975 236.732" stroke="#404040" stroke-width="3"/>
<path d="M90.2666 232.656L105.608 232.047L99.7476 244.732L90.2666 232.656Z" fill="#404040"/>
<path d="M92.9702 56.3473C106.288 49.7571 120.912 46.2332 135.77 46.0344C150.627 45.8355 165.341 48.9667 178.83 55.198" stroke="#404040" stroke-width="3"/>
<path d="M187.561 59.2735L172.22 59.8828L178.08 47.1975L187.561 59.2735Z" fill="#404040"/>
<path d="M42.9283 85.144C42.3763 85.144 41.8763 85.052 41.4283 84.868C40.9803 84.684 40.5963 84.408 40.2763 84.04C39.9643 83.672 39.7203 83.22 39.5443 82.684C39.3683 82.148 39.2803 81.524 39.2803 80.812C39.2803 80.108 39.3683 79.488 39.5443 78.952C39.7203 78.408 39.9643 77.952 40.2763 77.584C40.5963 77.216 40.9803 76.94 41.4283 76.756C41.8763 76.572 42.3763 76.48 42.9283 76.48C43.4803 76.48 43.9803 76.572 44.4283 76.756C44.8763 76.94 45.2603 77.216 45.5803 77.584C45.9003 77.952 46.1443 78.408 46.3123 78.952C46.4883 79.488 46.5763 80.108 46.5763 80.812C46.5763 81.524 46.4883 82.148 46.3123 82.684C46.1443 83.22 45.9003 83.672 45.5803 84.04C45.2603 84.408 44.8763 84.684 44.4283 84.868C43.9803 85.052 43.4803 85.144 42.9283 85.144ZM42.9283 83.74C43.5283 83.74 44.0043 83.54 44.3563 83.14C44.7163 82.74 44.8963 82.18 44.8963 81.46V80.164C44.8963 79.444 44.7163 78.884 44.3563 78.484C44.0043 78.084 43.5283 77.884 42.9283 77.884C42.3283 77.884 41.8483 78.084 41.4883 78.484C41.1363 78.884 40.9603 79.444 40.9603 80.164V81.46C40.9603 82.18 41.1363 82.74 41.4883 83.14C41.8483 83.54 42.3283 83.74 42.9283 83.74ZM48.0872 76.12H49.6232V79.768H49.6712C49.7832 79.408 49.9952 79.124 50.3072 78.916C50.6192 78.7 50.9832 78.592 51.3992 78.592C52.1992 78.592 52.8072 78.876 53.2232 79.444C53.6472 80.004 53.8592 80.808 53.8592 81.856C53.8592 82.912 53.6472 83.724 53.2232 84.292C52.8072 84.86 52.1992 85.144 51.3992 85.144C50.9832 85.144 50.6192 85.036 50.3072 84.82C50.0032 84.604 49.7912 84.316 49.6712 83.956H49.6232V85H48.0872V76.12ZM50.9072 83.872C51.3072 83.872 51.6312 83.74 51.8792 83.476C52.1272 83.212 52.2512 82.856 52.2512 82.408V81.328C52.2512 80.88 52.1272 80.524 51.8792 80.26C51.6312 79.988 51.3072 79.852 50.9072 79.852C50.5392 79.852 50.2312 79.944 49.9832 80.128C49.7432 80.312 49.6232 80.556 49.6232 80.86V82.852C49.6232 83.18 49.7432 83.432 49.9832 83.608C50.2312 83.784 50.5392 83.872 50.9072 83.872ZM57.3345 85.144C56.7345 85.144 56.2305 85.044 55.8225 84.844C55.4145 84.636 55.0545 84.352 54.7425 83.992L55.6785 83.08C55.9105 83.344 56.1625 83.552 56.4345 83.704C56.7145 83.856 57.0345 83.932 57.3945 83.932C57.7625 83.932 58.0265 83.868 58.1865 83.74C58.3545 83.612 58.4385 83.436 58.4385 83.212C58.4385 83.028 58.3785 82.884 58.2585 82.78C58.1465 82.668 57.9505 82.592 57.6705 82.552L57.0465 82.468C56.3665 82.38 55.8465 82.188 55.4865 81.892C55.1345 81.588 54.9585 81.148 54.9585 80.572C54.9585 80.268 55.0145 79.996 55.1265 79.756C55.2385 79.508 55.3985 79.3 55.6065 79.132C55.8145 78.956 56.0625 78.824 56.3505 78.736C56.6465 78.64 56.9745 78.592 57.3345 78.592C57.6385 78.592 57.9065 78.616 58.1385 78.664C58.3785 78.704 58.5945 78.768 58.7865 78.856C58.9785 78.936 59.1545 79.04 59.3145 79.168C59.4745 79.288 59.6305 79.424 59.7825 79.576L58.8825 80.476C58.6985 80.284 58.4785 80.124 58.2225 79.996C57.9665 79.868 57.6865 79.804 57.3825 79.804C57.0465 79.804 56.8025 79.864 56.6505 79.984C56.5065 80.104 56.4345 80.26 56.4345 80.452C56.4345 80.66 56.4945 80.82 56.6145 80.932C56.7425 81.036 56.9545 81.112 57.2505 81.16L57.8865 81.244C59.2385 81.436 59.9145 82.052 59.9145 83.092C59.9145 83.396 59.8505 83.676 59.7225 83.932C59.6025 84.18 59.4305 84.396 59.2065 84.58C58.9825 84.756 58.7105 84.896 58.3905 85C58.0785 85.096 57.7265 85.144 57.3345 85.144ZM63.8028 85.144C63.3388 85.144 62.9228 85.068 62.5548 84.916C62.1948 84.756 61.8868 84.536 61.6308 84.256C61.3828 83.968 61.1908 83.624 61.0548 83.224C60.9188 82.816 60.8508 82.36 60.8508 81.856C60.8508 81.36 60.9148 80.912 61.0428 80.512C61.1788 80.112 61.3708 79.772 61.6188 79.492C61.8668 79.204 62.1708 78.984 62.5308 78.832C62.8908 78.672 63.2988 78.592 63.7548 78.592C64.2428 78.592 64.6668 78.676 65.0268 78.844C65.3868 79.012 65.6828 79.24 65.9148 79.528C66.1468 79.816 66.3188 80.152 66.4308 80.536C66.5508 80.912 66.6108 81.316 66.6108 81.748V82.252H62.4468V82.408C62.4468 82.864 62.5748 83.232 62.8308 83.512C63.0868 83.784 63.4668 83.92 63.9708 83.92C64.3548 83.92 64.6668 83.84 64.9068 83.68C65.1548 83.52 65.3748 83.316 65.5668 83.068L66.3948 83.992C66.1388 84.352 65.7868 84.636 65.3388 84.844C64.8988 85.044 64.3868 85.144 63.8028 85.144ZM63.7788 79.744C63.3708 79.744 63.0468 79.88 62.8068 80.152C62.5668 80.424 62.4468 80.776 62.4468 81.208V81.304H65.0148V81.196C65.0148 80.764 64.9068 80.416 64.6908 80.152C64.4828 79.88 64.1788 79.744 63.7788 79.744ZM67.9622 85V78.736H69.4982V80.032H69.5582C69.5982 79.864 69.6582 79.704 69.7382 79.552C69.8262 79.392 69.9382 79.252 70.0742 79.132C70.2102 79.012 70.3702 78.916 70.5542 78.844C70.7462 78.772 70.9662 78.736 71.2142 78.736H71.5502V80.188H71.0702C70.5502 80.188 70.1582 80.264 69.8942 80.416C69.6302 80.568 69.4982 80.816 69.4982 81.16V85H67.9622ZM74.1109 85L72.0229 78.736H73.5349L74.4109 81.436L75.0229 83.668H75.1069L75.7189 81.436L76.5709 78.736H78.0349L75.9349 85H74.1109ZM83.5624 85C83.2264 85 82.9584 84.904 82.7584 84.712C82.5664 84.512 82.4464 84.248 82.3984 83.92H82.3264C82.2224 84.328 82.0104 84.636 81.6904 84.844C81.3704 85.044 80.9744 85.144 80.5024 85.144C79.8624 85.144 79.3704 84.976 79.0264 84.64C78.6824 84.304 78.5104 83.856 78.5104 83.296C78.5104 82.648 78.7424 82.168 79.2064 81.856C79.6704 81.536 80.3304 81.376 81.1864 81.376H82.2544V80.92C82.2544 80.568 82.1624 80.296 81.9784 80.104C81.7944 79.912 81.4984 79.816 81.0904 79.816C80.7304 79.816 80.4384 79.896 80.2144 80.056C79.9984 80.208 79.8144 80.392 79.6624 80.608L78.7504 79.792C78.9824 79.432 79.2904 79.144 79.6744 78.928C80.0584 78.704 80.5664 78.592 81.1984 78.592C82.0464 78.592 82.6904 78.784 83.1304 79.168C83.5704 79.552 83.7904 80.104 83.7904 80.824V83.776H84.4144V85H83.5624ZM81.0184 84.028C81.3624 84.028 81.6544 83.952 81.8944 83.8C82.1344 83.648 82.2544 83.424 82.2544 83.128V82.3H81.2704C80.4704 82.3 80.0704 82.556 80.0704 83.068V83.272C80.0704 83.528 80.1504 83.72 80.3104 83.848C80.4784 83.968 80.7144 84.028 81.0184 84.028ZM87.5667 85C87.0387 85 86.6347 84.864 86.3547 84.592C86.0827 84.312 85.9467 83.916 85.9467 83.404V79.96H85.0227V78.736H85.5027C85.7347 78.736 85.8907 78.684 85.9707 78.58C86.0587 78.468 86.1027 78.304 86.1027 78.088V77.02H87.4827V78.736H88.7667V79.96H87.4827V83.776H88.6707V85H87.5667ZM90.8669 77.824C90.5469 77.824 90.3149 77.752 90.1709 77.608C90.0349 77.464 89.9669 77.28 89.9669 77.056V76.816C89.9669 76.592 90.0349 76.408 90.1709 76.264C90.3149 76.12 90.5469 76.048 90.8669 76.048C91.1789 76.048 91.4069 76.12 91.5509 76.264C91.6949 76.408 91.7669 76.592 91.7669 76.816V77.056C91.7669 77.28 91.6949 77.464 91.5509 77.608C91.4069 77.752 91.1789 77.824 90.8669 77.824ZM90.0989 78.736H91.6349V85H90.0989V78.736ZM95.8993 85.144C95.4513 85.144 95.0473 85.068 94.6873 84.916C94.3353 84.764 94.0313 84.544 93.7753 84.256C93.5273 83.968 93.3353 83.624 93.1993 83.224C93.0633 82.816 92.9953 82.36 92.9953 81.856C92.9953 81.352 93.0633 80.9 93.1993 80.5C93.3353 80.1 93.5273 79.76 93.7753 79.48C94.0313 79.192 94.3353 78.972 94.6873 78.82C95.0473 78.668 95.4513 78.592 95.8993 78.592C96.3473 78.592 96.7513 78.668 97.1113 78.82C97.4713 78.972 97.7753 79.192 98.0233 79.48C98.2793 79.76 98.4753 80.1 98.6113 80.5C98.7473 80.9 98.8153 81.352 98.8153 81.856C98.8153 82.36 98.7473 82.816 98.6113 83.224C98.4753 83.624 98.2793 83.968 98.0233 84.256C97.7753 84.544 97.4713 84.764 97.1113 84.916C96.7513 85.068 96.3473 85.144 95.8993 85.144ZM95.8993 83.908C96.3073 83.908 96.6273 83.784 96.8593 83.536C97.0913 83.288 97.2073 82.924 97.2073 82.444V81.28C97.2073 80.808 97.0913 80.448 96.8593 80.2C96.6273 79.952 96.3073 79.828 95.8993 79.828C95.4993 79.828 95.1833 79.952 94.9513 80.2C94.7193 80.448 94.6033 80.808 94.6033 81.28V82.444C94.6033 82.924 94.7193 83.288 94.9513 83.536C95.1833 83.784 95.4993 83.908 95.8993 83.908ZM100.177 85V78.736H101.713V79.78H101.773C101.901 79.444 102.101 79.164 102.373 78.94C102.653 78.708 103.037 78.592 103.525 78.592C104.173 78.592 104.669 78.804 105.013 79.228C105.357 79.652 105.529 80.256 105.529 81.04V85H103.993V81.196C103.993 80.748 103.913 80.412 103.753 80.188C103.593 79.964 103.329 79.852 102.961 79.852C102.801 79.852 102.645 79.876 102.493 79.924C102.349 79.964 102.217 80.028 102.097 80.116C101.985 80.196 101.893 80.3 101.821 80.428C101.749 80.548 101.713 80.692 101.713 80.86V85H100.177Z" fill="#404040"/>
<path d="M185.546 85V83.728H186.65V77.896H185.546V76.624H189.35V77.896H188.234V83.728H189.35V85H185.546ZM194.702 83.956H194.642C194.53 84.316 194.318 84.604 194.006 84.82C193.694 85.036 193.33 85.144 192.914 85.144C192.122 85.144 191.514 84.86 191.09 84.292C190.674 83.724 190.466 82.912 190.466 81.856C190.466 80.808 190.674 80.004 191.09 79.444C191.514 78.876 192.122 78.592 192.914 78.592C193.33 78.592 193.694 78.7 194.006 78.916C194.318 79.124 194.53 79.408 194.642 79.768H194.702V76.12H196.238V85H194.702V83.956ZM193.406 83.872C193.774 83.872 194.082 83.784 194.33 83.608C194.578 83.432 194.702 83.18 194.702 82.852V80.86C194.702 80.556 194.578 80.312 194.33 80.128C194.082 79.944 193.774 79.852 193.406 79.852C193.006 79.852 192.682 79.988 192.434 80.26C192.194 80.524 192.074 80.88 192.074 81.328V82.408C192.074 82.856 192.194 83.212 192.434 83.476C192.682 83.74 193.006 83.872 193.406 83.872ZM200.541 85.144C200.077 85.144 199.661 85.068 199.293 84.916C198.933 84.756 198.625 84.536 198.369 84.256C198.121 83.968 197.929 83.624 197.793 83.224C197.657 82.816 197.589 82.36 197.589 81.856C197.589 81.36 197.653 80.912 197.781 80.512C197.917 80.112 198.109 79.772 198.357 79.492C198.605 79.204 198.909 78.984 199.269 78.832C199.629 78.672 200.037 78.592 200.493 78.592C200.981 78.592 201.405 78.676 201.765 78.844C202.125 79.012 202.421 79.24 202.653 79.528C202.885 79.816 203.057 80.152 203.169 80.536C203.289 80.912 203.349 81.316 203.349 81.748V82.252H199.185V82.408C199.185 82.864 199.313 83.232 199.569 83.512C199.825 83.784 200.205 83.92 200.709 83.92C201.093 83.92 201.405 83.84 201.645 83.68C201.893 83.52 202.113 83.316 202.305 83.068L203.133 83.992C202.877 84.352 202.525 84.636 202.077 84.844C201.637 85.044 201.125 85.144 200.541 85.144ZM200.517 79.744C200.109 79.744 199.785 79.88 199.545 80.152C199.305 80.424 199.185 80.776 199.185 81.208V81.304H201.753V81.196C201.753 80.764 201.645 80.416 201.429 80.152C201.221 79.88 200.917 79.744 200.517 79.744ZM209.309 85C208.973 85 208.705 84.904 208.505 84.712C208.313 84.512 208.193 84.248 208.145 83.92H208.073C207.969 84.328 207.757 84.636 207.437 84.844C207.117 85.044 206.721 85.144 206.249 85.144C205.609 85.144 205.117 84.976 204.773 84.64C204.429 84.304 204.257 83.856 204.257 83.296C204.257 82.648 204.489 82.168 204.953 81.856C205.417 81.536 206.077 81.376 206.933 81.376H208.001V80.92C208.001 80.568 207.909 80.296 207.725 80.104C207.541 79.912 207.245 79.816 206.837 79.816C206.477 79.816 206.185 79.896 205.961 80.056C205.745 80.208 205.561 80.392 205.409 80.608L204.497 79.792C204.729 79.432 205.037 79.144 205.421 78.928C205.805 78.704 206.313 78.592 206.945 78.592C207.793 78.592 208.437 78.784 208.877 79.168C209.317 79.552 209.537 80.104 209.537 80.824V83.776H210.161V85H209.309ZM206.765 84.028C207.109 84.028 207.401 83.952 207.641 83.8C207.881 83.648 208.001 83.424 208.001 83.128V82.3H207.017C206.217 82.3 205.817 82.556 205.817 83.068V83.272C205.817 83.528 205.897 83.72 206.057 83.848C206.225 83.968 206.461 84.028 206.765 84.028ZM213.313 85C212.785 85 212.381 84.864 212.101 84.592C211.829 84.312 211.693 83.916 211.693 83.404V79.96H210.769V78.736H211.249C211.481 78.736 211.637 78.684 211.717 78.58C211.805 78.468 211.849 78.304 211.849 78.088V77.02H213.229V78.736H214.513V79.96H213.229V83.776H214.417V85H213.313ZM216.613 77.824C216.293 77.824 216.061 77.752 215.917 77.608C215.781 77.464 215.713 77.28 215.713 77.056V76.816C215.713 76.592 215.781 76.408 215.917 76.264C216.061 76.12 216.293 76.048 216.613 76.048C216.925 76.048 217.153 76.12 217.297 76.264C217.441 76.408 217.513 76.592 217.513 76.816V77.056C217.513 77.28 217.441 77.464 217.297 77.608C217.153 77.752 216.925 77.824 216.613 77.824ZM215.845 78.736H217.381V85H215.845V78.736ZM221.645 85.144C221.197 85.144 220.793 85.068 220.433 84.916C220.081 84.764 219.777 84.544 219.521 84.256C219.273 83.968 219.081 83.624 218.945 83.224C218.809 82.816 218.741 82.36 218.741 81.856C218.741 81.352 218.809 80.9 218.945 80.5C219.081 80.1 219.273 79.76 219.521 79.48C219.777 79.192 220.081 78.972 220.433 78.82C220.793 78.668 221.197 78.592 221.645 78.592C222.093 78.592 222.497 78.668 222.857 78.82C223.217 78.972 223.521 79.192 223.769 79.48C224.025 79.76 224.221 80.1 224.357 80.5C224.493 80.9 224.561 81.352 224.561 81.856C224.561 82.36 224.493 82.816 224.357 83.224C224.221 83.624 224.025 83.968 223.769 84.256C223.521 84.544 223.217 84.764 222.857 84.916C222.497 85.068 222.093 85.144 221.645 85.144ZM221.645 83.908C222.053 83.908 222.373 83.784 222.605 83.536C222.837 83.288 222.953 82.924 222.953 82.444V81.28C222.953 80.808 222.837 80.448 222.605 80.2C222.373 79.952 222.053 79.828 221.645 79.828C221.245 79.828 220.929 79.952 220.697 80.2C220.465 80.448 220.349 80.808 220.349 81.28V82.444C220.349 82.924 220.465 83.288 220.697 83.536C220.929 83.784 221.245 83.908 221.645 83.908ZM225.923 85V78.736H227.459V79.78H227.519C227.647 79.444 227.847 79.164 228.119 78.94C228.399 78.708 228.783 78.592 229.271 78.592C229.919 78.592 230.415 78.804 230.759 79.228C231.103 79.652 231.275 80.256 231.275 81.04V85H229.739V81.196C229.739 80.748 229.659 80.412 229.499 80.188C229.339 79.964 229.075 79.852 228.707 79.852C228.547 79.852 228.391 79.876 228.239 79.924C228.095 79.964 227.963 80.028 227.843 80.116C227.731 80.196 227.639 80.3 227.567 80.428C227.495 80.548 227.459 80.692 227.459 80.86V85H225.923Z" fill="#404040"/>
<path d="M176.994 220V211.624H180.762C181.146 211.624 181.49 211.688 181.794 211.816C182.106 211.936 182.37 212.112 182.586 212.344C182.802 212.568 182.966 212.84 183.078 213.16C183.19 213.48 183.246 213.832 183.246 214.216C183.246 214.608 183.19 214.964 183.078 215.284C182.966 215.596 182.802 215.868 182.586 216.1C182.37 216.324 182.106 216.5 181.794 216.628C181.49 216.748 181.146 216.808 180.762 216.808H178.578V220H176.994ZM178.578 215.44H180.618C180.922 215.44 181.162 215.36 181.338 215.2C181.514 215.032 181.602 214.796 181.602 214.492V213.94C181.602 213.636 181.514 213.404 181.338 213.244C181.162 213.084 180.922 213.004 180.618 213.004H178.578V215.44ZM184.468 220V213.736H186.004V215.032H186.064C186.104 214.864 186.164 214.704 186.244 214.552C186.332 214.392 186.444 214.252 186.58 214.132C186.716 214.012 186.876 213.916 187.06 213.844C187.252 213.772 187.472 213.736 187.72 213.736H188.056V215.188H187.576C187.056 215.188 186.664 215.264 186.4 215.416C186.136 215.568 186.004 215.816 186.004 216.16V220H184.468ZM191.604 220.144C191.156 220.144 190.752 220.068 190.392 219.916C190.04 219.764 189.736 219.544 189.48 219.256C189.232 218.968 189.04 218.624 188.904 218.224C188.768 217.816 188.7 217.36 188.7 216.856C188.7 216.352 188.768 215.9 188.904 215.5C189.04 215.1 189.232 214.76 189.48 214.48C189.736 214.192 190.04 213.972 190.392 213.82C190.752 213.668 191.156 213.592 191.604 213.592C192.052 213.592 192.456 213.668 192.816 213.82C193.176 213.972 193.48 214.192 193.728 214.48C193.984 214.76 194.18 215.1 194.316 215.5C194.452 215.9 194.52 216.352 194.52 216.856C194.52 217.36 194.452 217.816 194.316 218.224C194.18 218.624 193.984 218.968 193.728 219.256C193.48 219.544 193.176 219.764 192.816 219.916C192.456 220.068 192.052 220.144 191.604 220.144ZM191.604 218.908C192.012 218.908 192.332 218.784 192.564 218.536C192.796 218.288 192.912 217.924 192.912 217.444V216.28C192.912 215.808 192.796 215.448 192.564 215.2C192.332 214.952 192.012 214.828 191.604 214.828C191.204 214.828 190.888 214.952 190.656 215.2C190.424 215.448 190.308 215.808 190.308 216.28V217.444C190.308 217.924 190.424 218.288 190.656 218.536C190.888 218.784 191.204 218.908 191.604 218.908ZM197.791 220C197.263 220 196.859 219.864 196.579 219.592C196.307 219.312 196.171 218.916 196.171 218.404V214.96H195.247V213.736H195.727C195.959 213.736 196.115 213.684 196.195 213.58C196.283 213.468 196.327 213.304 196.327 213.088V212.02H197.707V213.736H198.991V214.96H197.707V218.776H198.895V220H197.791ZM202.761 220.144C202.313 220.144 201.909 220.068 201.549 219.916C201.197 219.764 200.893 219.544 200.637 219.256C200.389 218.968 200.197 218.624 200.061 218.224C199.925 217.816 199.857 217.36 199.857 216.856C199.857 216.352 199.925 215.9 200.061 215.5C200.197 215.1 200.389 214.76 200.637 214.48C200.893 214.192 201.197 213.972 201.549 213.82C201.909 213.668 202.313 213.592 202.761 213.592C203.209 213.592 203.613 213.668 203.973 213.82C204.333 213.972 204.637 214.192 204.885 214.48C205.141 214.76 205.337 215.1 205.473 215.5C205.609 215.9 205.677 216.352 205.677 216.856C205.677 217.36 205.609 217.816 205.473 218.224C205.337 218.624 205.141 218.968 204.885 219.256C204.637 219.544 204.333 219.764 203.973 219.916C203.613 220.068 203.209 220.144 202.761 220.144ZM202.761 218.908C203.169 218.908 203.489 218.784 203.721 218.536C203.953 218.288 204.069 217.924 204.069 217.444V216.28C204.069 215.808 203.953 215.448 203.721 215.2C203.489 214.952 203.169 214.828 202.761 214.828C202.361 214.828 202.045 214.952 201.813 215.2C201.581 215.448 201.465 215.808 201.465 216.28V217.444C201.465 217.924 201.581 218.288 201.813 218.536C202.045 218.784 202.361 218.908 202.761 218.908ZM208.948 220C208.42 220 208.016 219.864 207.736 219.592C207.464 219.312 207.328 218.916 207.328 218.404V214.96H206.404V213.736H206.884C207.116 213.736 207.272 213.684 207.352 213.58C207.44 213.468 207.484 213.304 207.484 213.088V212.02H208.864V213.736H210.148V214.96H208.864V218.776H210.052V220H208.948ZM215.32 213.736H216.76L214.24 221.116C214.16 221.34 214.068 221.532 213.964 221.692C213.868 221.86 213.752 221.996 213.616 222.1C213.48 222.204 213.316 222.28 213.124 222.328C212.932 222.376 212.708 222.4 212.452 222.4H211.528V221.176H212.656L212.944 220.3L210.7 213.736H212.224L213.316 217.048L213.724 218.632H213.796L214.228 217.048L215.32 213.736ZM217.773 213.736H219.309V214.768H219.357C219.469 214.408 219.681 214.124 219.993 213.916C220.305 213.7 220.669 213.592 221.085 213.592C221.885 213.592 222.493 213.876 222.909 214.444C223.333 215.004 223.545 215.808 223.545 216.856C223.545 217.912 223.333 218.724 222.909 219.292C222.493 219.86 221.885 220.144 221.085 220.144C220.669 220.144 220.305 220.036 219.993 219.82C219.689 219.604 219.477 219.316 219.357 218.956H219.309V222.4H217.773V213.736ZM220.593 218.872C220.993 218.872 221.317 218.74 221.565 218.476C221.813 218.212 221.937 217.856 221.937 217.408V216.328C221.937 215.88 221.813 215.524 221.565 215.26C221.317 214.988 220.993 214.852 220.593 214.852C220.225 214.852 219.917 214.944 219.669 215.128C219.429 215.312 219.309 215.556 219.309 215.86V217.852C219.309 218.18 219.429 218.432 219.669 218.608C219.917 218.784 220.225 218.872 220.593 218.872ZM225.736 212.824C225.416 212.824 225.184 212.752 225.04 212.608C224.904 212.464 224.836 212.28 224.836 212.056V211.816C224.836 211.592 224.904 211.408 225.04 211.264C225.184 211.12 225.416 211.048 225.736 211.048C226.048 211.048 226.276 211.12 226.42 211.264C226.564 211.408 226.636 211.592 226.636 211.816V212.056C226.636 212.28 226.564 212.464 226.42 212.608C226.276 212.752 226.048 212.824 225.736 212.824ZM224.968 213.736H226.504V220H224.968V213.736ZM228.284 220V213.736H229.82V214.78H229.88C230.008 214.444 230.208 214.164 230.48 213.94C230.76 213.708 231.144 213.592 231.632 213.592C232.28 213.592 232.776 213.804 233.12 214.228C233.464 214.652 233.636 215.256 233.636 216.04V220H232.1V216.196C232.1 215.748 232.02 215.412 231.86 215.188C231.7 214.964 231.436 214.852 231.068 214.852C230.908 214.852 230.752 214.876 230.6 214.924C230.456 214.964 230.324 215.028 230.204 215.116C230.092 215.196 230 215.3 229.928 215.428C229.856 215.548 229.82 215.692 229.82 215.86V220H228.284ZM240.991 220.528C240.991 220.856 240.931 221.144 240.811 221.392C240.699 221.648 240.511 221.86 240.247 222.028C239.983 222.196 239.643 222.324 239.227 222.412C238.811 222.5 238.303 222.544 237.703 222.544C237.175 222.544 236.727 222.508 236.359 222.436C235.991 222.372 235.687 222.276 235.447 222.148C235.215 222.028 235.047 221.876 234.943 221.692C234.839 221.508 234.787 221.3 234.787 221.068C234.787 220.716 234.883 220.44 235.075 220.24C235.275 220.048 235.551 219.924 235.903 219.868V219.736C235.647 219.672 235.447 219.548 235.303 219.364C235.167 219.172 235.099 218.948 235.099 218.692C235.099 218.532 235.131 218.392 235.195 218.272C235.259 218.144 235.343 218.036 235.447 217.948C235.559 217.86 235.683 217.788 235.819 217.732C235.955 217.668 236.099 217.62 236.251 217.588V217.54C235.867 217.364 235.579 217.12 235.387 216.808C235.203 216.496 235.111 216.132 235.111 215.716C235.111 215.076 235.331 214.564 235.771 214.18C236.211 213.788 236.855 213.592 237.703 213.592C237.895 213.592 238.083 213.604 238.267 213.628C238.459 213.652 238.635 213.692 238.795 213.748V213.544C238.795 212.936 239.091 212.632 239.683 212.632H240.655V213.808H239.323V213.976C239.651 214.16 239.895 214.4 240.055 214.696C240.215 214.992 240.295 215.332 240.295 215.716C240.295 216.348 240.075 216.856 239.635 217.24C239.203 217.624 238.559 217.816 237.703 217.816C237.335 217.816 237.015 217.78 236.743 217.708C236.623 217.764 236.519 217.84 236.431 217.936C236.343 218.024 236.299 218.136 236.299 218.272C236.299 218.584 236.571 218.74 237.115 218.74H238.795C239.563 218.74 240.119 218.9 240.463 219.22C240.815 219.532 240.991 219.968 240.991 220.528ZM239.551 220.708C239.551 220.508 239.471 220.352 239.311 220.24C239.151 220.128 238.875 220.072 238.483 220.072H236.347C236.131 220.232 236.023 220.448 236.023 220.72C236.023 220.96 236.123 221.148 236.323 221.284C236.523 221.42 236.863 221.488 237.343 221.488H238.111C238.615 221.488 238.979 221.424 239.203 221.296C239.435 221.168 239.551 220.972 239.551 220.708ZM237.703 216.772C238.455 216.772 238.831 216.452 238.831 215.812V215.608C238.831 214.968 238.455 214.648 237.703 214.648C236.951 214.648 236.575 214.968 236.575 215.608V215.812C236.575 216.452 236.951 216.772 237.703 216.772Z" fill="#404040"/>
<path d="M49.6919 213.028V220H48.1079V213.028H45.7319V211.624H52.0679V213.028H49.6919ZM55.0157 220.144C54.5517 220.144 54.1357 220.068 53.7677 219.916C53.4077 219.756 53.0997 219.536 52.8437 219.256C52.5957 218.968 52.4037 218.624 52.2677 218.224C52.1317 217.816 52.0637 217.36 52.0637 216.856C52.0637 216.36 52.1277 215.912 52.2557 215.512C52.3917 215.112 52.5837 214.772 52.8317 214.492C53.0797 214.204 53.3837 213.984 53.7437 213.832C54.1037 213.672 54.5117 213.592 54.9677 213.592C55.4557 213.592 55.8797 213.676 56.2397 213.844C56.5997 214.012 56.8957 214.24 57.1277 214.528C57.3597 214.816 57.5317 215.152 57.6437 215.536C57.7637 215.912 57.8237 216.316 57.8237 216.748V217.252H53.6597V217.408C53.6597 217.864 53.7877 218.232 54.0437 218.512C54.2997 218.784 54.6797 218.92 55.1837 218.92C55.5677 218.92 55.8797 218.84 56.1197 218.68C56.3677 218.52 56.5877 218.316 56.7797 218.068L57.6077 218.992C57.3517 219.352 56.9997 219.636 56.5517 219.844C56.1117 220.044 55.5997 220.144 55.0157 220.144ZM54.9917 214.744C54.5837 214.744 54.2597 214.88 54.0197 215.152C53.7797 215.424 53.6597 215.776 53.6597 216.208V216.304H56.2277V216.196C56.2277 215.764 56.1197 215.416 55.9037 215.152C55.6957 214.88 55.3917 214.744 54.9917 214.744ZM61.2271 220.144C60.6271 220.144 60.1231 220.044 59.7151 219.844C59.3071 219.636 58.9471 219.352 58.6351 218.992L59.5711 218.08C59.8031 218.344 60.0551 218.552 60.3271 218.704C60.6071 218.856 60.9271 218.932 61.2871 218.932C61.6551 218.932 61.9191 218.868 62.0791 218.74C62.2471 218.612 62.3311 218.436 62.3311 218.212C62.3311 218.028 62.2711 217.884 62.1511 217.78C62.0391 217.668 61.8431 217.592 61.5631 217.552L60.9391 217.468C60.2591 217.38 59.7391 217.188 59.3791 216.892C59.0271 216.588 58.8511 216.148 58.8511 215.572C58.8511 215.268 58.9071 214.996 59.0191 214.756C59.1311 214.508 59.2911 214.3 59.4991 214.132C59.7071 213.956 59.9551 213.824 60.2431 213.736C60.5391 213.64 60.8671 213.592 61.2271 213.592C61.5311 213.592 61.7991 213.616 62.0311 213.664C62.2711 213.704 62.4871 213.768 62.6791 213.856C62.8711 213.936 63.0471 214.04 63.2071 214.168C63.3671 214.288 63.5231 214.424 63.6751 214.576L62.7751 215.476C62.5911 215.284 62.3711 215.124 62.1151 214.996C61.8591 214.868 61.5791 214.804 61.2751 214.804C60.9391 214.804 60.6951 214.864 60.5431 214.984C60.3991 215.104 60.3271 215.26 60.3271 215.452C60.3271 215.66 60.3871 215.82 60.5071 215.932C60.6351 216.036 60.8471 216.112 61.1431 216.16L61.7791 216.244C63.1311 216.436 63.8071 217.052 63.8071 218.092C63.8071 218.396 63.7431 218.676 63.6151 218.932C63.4951 219.18 63.3231 219.396 63.0991 219.58C62.8751 219.756 62.6031 219.896 62.2831 220C61.9711 220.096 61.6191 220.144 61.2271 220.144ZM67.0256 220C66.4976 220 66.0936 219.864 65.8136 219.592C65.5416 219.312 65.4056 218.916 65.4056 218.404V214.96H64.4816V213.736H64.9616C65.1936 213.736 65.3496 213.684 65.4296 213.58C65.5176 213.468 65.5616 213.304 65.5616 213.088V212.02H66.9416V213.736H68.2256V214.96H66.9416V218.776H68.1296V220H67.0256ZM70.3259 212.824C70.0059 212.824 69.7739 212.752 69.6299 212.608C69.4939 212.464 69.4259 212.28 69.4259 212.056V211.816C69.4259 211.592 69.4939 211.408 69.6299 211.264C69.7739 211.12 70.0059 211.048 70.3259 211.048C70.6379 211.048 70.8659 211.12 71.0099 211.264C71.1539 211.408 71.2259 211.592 71.2259 211.816V212.056C71.2259 212.28 71.1539 212.464 71.0099 212.608C70.8659 212.752 70.6379 212.824 70.3259 212.824ZM69.5579 213.736H71.0939V220H69.5579V213.736ZM72.8743 220V213.736H74.4103V214.78H74.4703C74.5983 214.444 74.7983 214.164 75.0703 213.94C75.3503 213.708 75.7343 213.592 76.2223 213.592C76.8703 213.592 77.3663 213.804 77.7103 214.228C78.0543 214.652 78.2263 215.256 78.2263 216.04V220H76.6903V216.196C76.6903 215.748 76.6103 215.412 76.4503 215.188C76.2903 214.964 76.0263 214.852 75.6583 214.852C75.4983 214.852 75.3423 214.876 75.1903 214.924C75.0463 214.964 74.9143 215.028 74.7943 215.116C74.6823 215.196 74.5903 215.3 74.5183 215.428C74.4463 215.548 74.4103 215.692 74.4103 215.86V220H72.8743ZM85.581 220.528C85.581 220.856 85.521 221.144 85.401 221.392C85.289 221.648 85.101 221.86 84.837 222.028C84.573 222.196 84.233 222.324 83.817 222.412C83.401 222.5 82.893 222.544 82.293 222.544C81.765 222.544 81.317 222.508 80.949 222.436C80.581 222.372 80.277 222.276 80.037 222.148C79.805 222.028 79.637 221.876 79.533 221.692C79.429 221.508 79.377 221.3 79.377 221.068C79.377 220.716 79.473 220.44 79.665 220.24C79.865 220.048 80.141 219.924 80.493 219.868V219.736C80.237 219.672 80.037 219.548 79.893 219.364C79.757 219.172 79.689 218.948 79.689 218.692C79.689 218.532 79.721 218.392 79.785 218.272C79.849 218.144 79.933 218.036 80.037 217.948C80.149 217.86 80.273 217.788 80.409 217.732C80.545 217.668 80.689 217.62 80.841 217.588V217.54C80.457 217.364 80.169 217.12 79.977 216.808C79.793 216.496 79.701 216.132 79.701 215.716C79.701 215.076 79.921 214.564 80.361 214.18C80.801 213.788 81.445 213.592 82.293 213.592C82.485 213.592 82.673 213.604 82.857 213.628C83.049 213.652 83.225 213.692 83.385 213.748V213.544C83.385 212.936 83.681 212.632 84.273 212.632H85.245V213.808H83.913V213.976C84.241 214.16 84.485 214.4 84.645 214.696C84.805 214.992 84.885 215.332 84.885 215.716C84.885 216.348 84.665 216.856 84.225 217.24C83.793 217.624 83.149 217.816 82.293 217.816C81.925 217.816 81.605 217.78 81.333 217.708C81.213 217.764 81.109 217.84 81.021 217.936C80.933 218.024 80.889 218.136 80.889 218.272C80.889 218.584 81.161 218.74 81.705 218.74H83.385C84.153 218.74 84.709 218.9 85.053 219.22C85.405 219.532 85.581 219.968 85.581 220.528ZM84.141 220.708C84.141 220.508 84.061 220.352 83.901 220.24C83.741 220.128 83.465 220.072 83.073 220.072H80.937C80.721 220.232 80.613 220.448 80.613 220.72C80.613 220.96 80.713 221.148 80.913 221.284C81.113 221.42 81.453 221.488 81.933 221.488H82.701C83.205 221.488 83.569 221.424 83.793 221.296C84.025 221.168 84.141 220.972 84.141 220.708ZM82.293 216.772C83.045 216.772 83.421 216.452 83.421 215.812V215.608C83.421 214.968 83.045 214.648 82.293 214.648C81.541 214.648 81.165 214.968 81.165 215.608V215.812C81.165 216.452 81.541 216.772 82.293 216.772Z" fill="#404040"/>
</g>
<defs>
<clipPath id="clip0">
<rect width="240" height="249" fill="white" transform="translate(20 20)"/>
</clipPath>
</defs>
</svg>
